<svg width="192" height="192" viewBox="0 0 192 192" fill="none" xmlns="http://www.w3.org/2000/svg">
  <!-- Wings Left -->
  <path d="M40 96C40 96 20 80 10 60C0 40 10 30 30 50C50 70 50 80 40 96Z" fill="#00B4D8"/>
  <path d="M50 85C50 85 35 75 28 60C21 45 28 38 42 52C56 66 56 75 50 85Z" fill="#00B4D8"/>
  <path d="M60 78C60 78 48 70 43 58C38 46 43 40 54 50C65 60 65 70 60 78Z" fill="#00B4D8"/>
  
  <!-- Mountain -->
  <path d="M96 30L120 90L140 70L160 120H32L52 90L70 50L96 30Z" fill="#00B4D8"/>
  <path d="M96 30L70 50L52 90L32 120L80 60L96 30Z" fill="#0099CC"/>
  
  <!-- Wings Right -->
  <path d="M152 96C152 96 172 80 182 60C192 40 182 30 162 50C142 70 142 80 152 96Z" fill="#00B4D8"/>
  <path d="M142 85C142 85 157 75 164 60C171 45 164 38 150 52C136 66 136 75 142 85Z" fill="#00B4D8"/>
  <path d="M132 78C132 78 144 70 149 58C154 46 149 40 138 50C127 60 127 70 132 78Z" fill="#00B4D8"/>
</svg>
